# AST/ASF file generated using VICON BodyLanguage
# -----------------------------------------------
:version 1.10
:name VICON
:units
  mass 1.0
  length 0.45
  angle deg
:documentation
   .ast/.asf automatically generated from VICON data using
   VICON BodyBuilder and BodyLanguage model FoxedUp or BRILLIANT.MOD
:root
   order TX TY TZ RX RY RZ
   axis XYZ
   position 0 0 0  
   orientation 0 0 0 
:bonedata
  begin
     id 1 
     name lhipjoint
     direction 0.54267 -0.795011 0.271047 
     length 2.39899 
     axis 0 0 0  XYZ
  end
  begin
     id 2 
     name lfemur
     direction 0.34202 -0.939693 0  
     length 7.49701  
     axis 0 0 20  XYZ
    dof rx ry rz
    limits (-160.0 20.0)
           (-70.0 70.0)
           (-60.0 70.0)
  end
  begin
     id 3 
     name ltibia
     direction 0.34202 -0.939693 0   
     length 8.1668   
     axis 0 0 20   XYZ
    dof rx
    limits (-10.0 170.0)
  end
  begin
     id 4 
     name lfoot
     direction 0.0736283 -0.202292 0.976554   
     length 2.13544   
     axis -90 7.62852e-016 20   XYZ
    dof rx rz
    limits (-45.0 90.0)
           (-70.0 20.0)
  end
  begin
     id 5 
     name ltoes
     direction 1.53557e-011 -4.22024e-011 1   
     length 1.07411   
     axis -90 7.62852e-016 20   XYZ
    dof rx
    limits (-90.0 20.0)
  end
  begin
     id 6 
     name rhipjoint
     direction -0.538061 -0.797813 0.272002   
     length 2.39057  
     axis 0 0 0  XYZ 
  end
  begin
     id 7 
     name rfemur
     direction -0.34202 -0.939693 0   
     length 7.50152   
     axis 0 0 -20   XYZ
    dof rx ry rz
    limits (-160.0 20.0)
           (-70.0 70.0)
           (-70.0 60.0)
  end
  begin
     id 8 
     name rtibia
     direction -0.34202 -0.939693 0   
     length 8.05793   
     axis 0 0 -20   XYZ
    dof rx
    limits (-10.0 170.0)
 end
 begin
     id 9 
     name rfoot
     direction -0.0765195 -0.210236 0.974652   
     length 2.28698  
     axis -90 -7.62852e-016 -20   XYZ
    dof rx rz
    limits (-45.0 90.0)
           (-20.0 70.0)
  end
  begin
     id 10 
     name rtoes
     direction -1.53542e-011 -4.21847e-011 1   
     length 1.14762   
     axis -90 -7.62852e-016 -20   XYZ
    dof rx
    limits (-90.0 20.0)
  end
  begin
     id 11 
     name lowerback
     direction -0.0217239 0.996592 -0.0795765   
     length 2.08176   
     axis 0 0 0   XYZ
    dof rx ry rz
    limits (-20.0 45.0)
           (-30.0 30.0)
           (-30.0 30.0)
  end
  begin
     id 12 
     name upperback
     direction -0.00563773 0.999651 -0.0258155   
     length 2.08898   
     axis 0 0 0   XYZ
    dof rx ry rz
    limits (-20.0 45.0)
           (-30.0 30.0)
           (-30.0 30.0)
  end
  begin
     id 13 
     name thorax
     direction 0.0032706 0.999923 0.0119599   
     length 2.0968   
     axis 0 0 0   XYZ
    dof rx ry rz
    limits (-20.0 45.0)
           (-30.0 30.0)
           (-30.0 30.0)
  end
  begin
     id 14 
     name lowerneck
     direction -0.0285886 0.99568 0.0883427   
     length 1.81272   
     axis 0 0 0   XYZ
    dof rx ry rz
    limits (-20.0 45.0)
           (-30.0 30.0)
           (-30.0 30.0)
  end
  begin
     id 15 
     name upperneck
     direction 0.0807535 0.97985 -0.18268   
     length 1.82518   
     axis 0 0 0   XYZ
    dof rx ry rz
    limits (-20.0 45.0)
           (-30.0 30.0)
           (-30.0 30.0)
  end
  begin
     id 16
     name head
     direction 0.0236605 0.997053 -0.0729767  
     length 1.84443  
     axis 0 0 0   XYZ
    dof rx ry rz
    limits (-20.0 45.0)
           (-30.0 30.0)
           (-30.0 30.0)
  end
  begin
     id 17 
     name lclavicle
     direction 0.918986 0.39378 -0.0200683  
     length 3.27822  
     axis 0 0 0   XYZ
    dof ry rz
    limits (-20.0 10.0)
           (0.0 20.0)
  end
  begin
     id 18 
     name lhumerus
     direction 1 -4.4897e-011 2.09544e-027   
     length 5.5568   
     axis 180 -30 -90   XYZ
    dof rx ry rz
    limits (-60.0 90.0)
           (-90.0 90.0)
           (-90.0 90.0)
  end
  begin
     id 19
     name lradius
     direction 1 -4.48957e-011 -1.27696e-026   
     length 3.63979   
     axis 180 -30 -90   XYZ
    dof rx
    limits (-10.0 170.0)
  end
  begin
     id 20
     name lwrist
     direction 1 -4.49001e-011 -1.49001e-026   
     length 1.8199   
     axis 9.0955e-015 90 90   XYZ
    dof ry
    limits (-180.0 0.0)
 end
  begin
     id 21 
     name lhand
     direction 1 -4.48709e-011 -2.9758e-026   
     length 0.569419   
     axis 1.90115e-014 90 90   XYZ
    dof rx rz
    limits (-90.0 90.0)
           (-45.0 45.0)
  end
  begin
     id 22 
     name lfingers
     direction 1 -4.49175e-011 -5.96505e-026   
     length 0.45908   
     axis 3.80223e-014 90 90   XYZ
    dof rx
    limits (0.0 90.0)
  end
  begin
     id 23
     name lthumb
     direction 0.707107 -6.34864e-011 0.707107   
     length 0.65915   
     axis -90 45 -3.84942e-014   XYZ
    dof rx rz
    limits (-45.0 45.0)
           (-45.0 45.0)
  end
  begin
     id 24 
     name rclavicle
     direction -0.911913 0.396426 -0.106115   
     length 3.46301  
     axis 0 0 0   XYZ 
    dof ry rz
    limits (-10.0 20.0)
           (-20.0 0.0)
  end
  begin
     id 25 
     name rhumerus
     direction -1 -4.48965e-011 7.78516e-028  
     length 5.34339   
     axis 180 30 90   XYZ
    dof rx ry rz
    limits (-90.0 60.0)
           (-90.0 90.0)
           (-90.0 90.0)
  end
  begin
     id 26 
     name rradius
     direction -1 -4.48948e-011 -5.79823e-027   
     length 3.65101   
     axis 180 30 90   XYZ
    dof rx
    limits (-10.0 170.0)
  end
  begin
     id 27 
     name rwrist
     direction -1 -4.48995e-011 -1.48996e-026   
     length 1.8255   
     axis 9.0955e-015 -90 -90   XYZ
    dof ry
    limits (-180.0 0.0)
  end
  begin
     id 28
     name rhand
     direction -1 -4.48957e-011 -2.97937e-026   
     length 0.694249   
     axis 1.90115e-014 -90 -90   XYZ
    dof rx rz
    limits (-90.0 90.0)
           (-45.0 45.0)
  end
  begin
     id 29
     name rfingers
     direction -1 -4.4898e-011 -5.95943e-026   
     length 0.559721   
     axis 3.80223e-014 -90 -90   XYZ
    dof rx
    limits (0.0 90.0)
  end
  begin
     id 30
     name rthumb
     direction -0.707107 -6.34969e-011 0.707107   
     length 0.803651   
     axis -90 -45 3.84942e-014   XYZ
    dof rx rz
    limits (-45.0 45.0)
           (-45.0 45.0)
  end
:hierarchy
  begin
    root lhipjoint rhipjoint lowerback
    lhipjoint lfemur
    lfemur ltibia
    ltibia lfoot
    lfoot ltoes
    rhipjoint rfemur
    rfemur rtibia
    rtibia rfoot
    rfoot rtoes
    lowerback upperback
    upperback thorax
    thorax lowerneck lclavicle rclavicle
    lowerneck upperneck
    upperneck head
    lclavicle lhumerus
    lhumerus lradius
    lradius lwrist
    lwrist lhand lthumb
    lhand lfingers
    rclavicle rhumerus
    rhumerus rradius
    rradius rwrist
    rwrist rhand rthumb
    rhand rfingers
  end

#!OML:ASF H:\Terrain\Walking\May29\JustinRory\rory.ASF
:FULLY-SPECIFIED
:DEGREES
297
root 12.2236 16.1093 -12.6466 -18.0814 62.3874 -14.7678
lowerback 17.7614 1.15694 -0.0577571
upperback 7.5036 1.88971 1.87132
thorax -1.98674 1.04432 1.63996
lowerneck 2.60246 -21.1973 -16.0514
upperneck -7.71221 -28.96 30.87
head 4.54366 -14.7708 9.36526
rclavicle -4.67144e-015 2.62396e-014
rhumerus 16.7614 -68.22 -43.0068
rradius 12.7345
rwrist 31.6061
rhand -21.1487 14.0015
rfingers 7.12502
rthumb 5.23076 -15.914
lclavicle -4.67144e-015 2.62396e-014
lhumerus -32.648 -16.6684 61.6607
lradius 73.4257
lwrist 5.18244
lhand -19.1597 16.1343
lfingers 7.12502
lthumb 7.15101 45.9935
rfemur -23.3576 -3.86972 0.342618
rtibia 45.5257
rfoot -11.9775 -22.4318
rtoes 7.67034
lfemur -34.6177 5.45548 -21.109
ltibia 66.8365
lfoot -25.5392 -0.274512
ltoes 4.60102
298
root 12.2505 16.0973 -12.538 -17.4338 61.9899 -14.0479
lowerback 17.213 1.24596 -0.441846
upperback 7.51653 1.92687 1.69165
thorax -1.69404 1.05369 1.67314
lowerneck 2.22476 -21.064 -15.9318
upperneck -6.75954 -28.9169 30.5507
head 4.7944 -14.662 9.20064
rclavicle -5.92378e-014 -1.27222e-014
rhumerus 20.5243 -70.4794 -47.1072
rradius 12.385
rwrist 34.3775
rhand -21.5491 14.541
rfingers 7.12502
rthumb 4.84414 -15.3836
lclavicle -5.92378e-014 -1.27222e-014
lhumerus -32.7168 -15.3599 60.313
lradius 71.9642
lwrist 4.74219
lhand -19.1711 16.2718
lfingers 7.12502
lthumb 7.14002 46.1314
rfemur -22.1852 -2.50263 0.331535
rtibia 42.423
rfoot -11.1917 -23.272
rtoes 10.1207
lfemur -34.4155 5.5898 -20.9882
ltibia 67.1621
lfoot -26.0786 0.258546
ltoes 2.144
299
root 12.2712 16.0956 -12.4254 -17.144 61.6645 -13.7332
lowerback 16.7675 1.38331 -0.617818
upperback 7.48924 2.06998 1.63988
thorax -1.49913 1.11842 1.70213
lowerneck 1.90644 -21.0651 -16.3071
upperneck -5.75517 -29.1273 30.4267
head 5.22237 -14.6694 9.08507
rclavicle 1.27222e-013 -3.65764e-014
rhumerus 20.2978 -70.1719 -46.8864
rradius 12.3668
rwrist 34.1219
rhand -22.155 15.1083
rfingers 7.12502
rthumb 4.25908 -14.8289
lclavicle 1.27222e-013 -3.65764e-014
lhumerus -32.6309 -14.1537 59.1905
lradius 70.3457
lwrist 4.24653
lhand -19.4205 16.7762
lfingers 7.12502
lthumb 6.89929 46.6438
rfemur -20.9559 -0.659541 0.288883
rtibia 39.3082
rfoot -9.23118 -23.5075
rtoes 9.42557
lfemur -34.2568 5.56932 -20.6316
ltibia 67.5302
lfoot -26.5307 0.353234
ltoes 1.4224
300
root 12.288 16.0988 -12.3161 -16.9023 61.2675 -13.4913
lowerback 16.3944 1.56648 -0.537192
upperback 7.40382 2.30952 1.52849
thorax -1.39588 1.23718 1.50559
lowerneck 1.61352 -21.1715 -16.6107
upperneck -4.74851 -29.4741 30.1781
head 5.64343 -14.7455 8.89789
rclavicle 1.35174e-014 8.34896e-015
rhumerus 17.0473 -68.0173 -43.5702
rradius 12.5481
rwrist 31.7865
rhand -22.4218 15.1339
rfingers 7.12502
rthumb 4.00143 -14.8083
lclavicle 1.35174e-014 8.34896e-015
lhumerus -32.9573 -13.4477 58.1243
lradius 69.2331
lwrist 4.05836
lhand -20.2192 17.9431
lfingers 7.12502
lthumb 6.12821 47.8345
rfemur -20.269 1.73365 -0.016808
rtibia 37.3676
rfoot -0.694474 -19.0458
rtoes -4.48623
lfemur -34.1451 5.60557 -20.2339
ltibia 67.9088
lfoot -26.965 0.44078
ltoes 0.853278
301
root 12.2947 16.0734 -12.2051 -16.4906 60.833 -13.0582
lowerback 16.3023 1.64416 -0.404028
upperback 7.16669 2.40694 1.19119
thorax -1.58278 1.28822 1.05766
lowerneck 1.59981 -21.132 -16.4901
upperneck -3.87914 -29.5814 29.8744
head 5.85049 -14.7455 8.75369
rclavicle 6.75868e-015 -1.98785e-014
rhumerus 16.1573 -67.4167 -43.1448
rradius 12.587
rwrist 31.3756
rhand -21.6587 15.0453
rfingers 7.12502
rthumb 4.73836 -14.8817
lclavicle 6.75868e-015 -1.98785e-014
lhumerus -34.0022 -12.8224 56.7661
lradius 68.7643
lwrist 4.17445
lhand -21.0178 19.4326
lfingers 7.12502
lthumb 5.3572 49.3449
rfemur -20.1102 3.96397 -0.524843
rtibia 36.7478
rfoot -2.39346 -22.79
rtoes -1.85226
lfemur -34.17 5.66038 -19.9345
ltibia 68.4185
lfoot -27.4376 0.830997
ltoes -0.542674
302
root 12.2855 16.0398 -12.1075 -16.4457 60.4178 -13.1815
lowerback 16.3898 1.5744 0.0841065
upperback 6.84589 2.36239 0.854033
thorax -1.93483 1.27262 0.427578
lowerneck 1.7813 -20.9303 -16.2893
upperneck -3.36147 -29.417 29.8317
head 5.90141 -14.6533 8.77691
rclavicle 1.8487e-014 -8.74653e-015
rhumerus 17.7918 -68.6634 -45.4504
rradius 12.3976
rwrist 32.6405
rhand -20.7104 15.4243
rfingers 7.12502
rthumb 5.65395 -14.4802
lclavicle 1.8487e-014 -8.74653e-015
lhumerus -34.6739 -11.7439 55.1895
lradius 67.7243
lwrist 4.02794
lhand -21.1837 19.3565
lfingers 7.12502
lthumb 5.19699 49.2727
rfemur -19.935 3.06582 0.139038
rtibia 37.6801
rfoot -3.4885 -24.5381
rtoes -4.78077
lfemur -34.4448 5.45335 -19.4063
ltibia 68.9419
lfoot -27.7358 1.71414
ltoes -2.88396
303
root 12.2772 16.0117 -12.0257 -16.445 59.9509 -13.1049
lowerback 16.5645 1.53755 0.148935
upperback 6.73323 2.32155 0.902997
thorax -2.14502 1.24996 0.441753
lowerneck 1.96431 -20.6958 -16.7026
upperneck -3.13922 -29.1815 29.9327
head 5.97093 -14.5406 8.92546
rclavicle -2.98177e-015 -7.95139e-016
rhumerus 20.3994 -69.0471 -48.0346
rradius 12.2108
rwrist 33.0781
rhand -21.5991 15.4573
rfingers 7.12502
rthumb 4.79586 -14.4684
lclavicle -2.98177e-015 -7.95139e-016
lhumerus -35.0389 -9.83803 54.2652
lradius 65.9624
lwrist 3.75016
lhand -21.8251 19.4629
lfingers 7.12502
lthumb 4.57769 49.3935
rfemur -20.7441 2.18353 0.609229
rtibia 39.1923
rfoot -3.32805 -21.1695
rtoes -9.46003
lfemur -34.4829 5.02981 -19.0365
ltibia 69.4258
lfoot -27.9429 2.96181
ltoes -5.59903
304
root 12.2767 15.9998 -11.9537 -16.2806 59.3012 -12.5242
lowerback 16.8672 1.57452 -0.158183
upperback 6.82583 2.3321 1.03348
thorax -2.22267 1.25071 0.742621
lowerneck 1.98687 -20.4949 -17.1073
upperneck -3.05464 -28.9398 29.9729
head 6.00938 -14.4208 9.04108
rclavicle 2.10712e-014 -2.38542e-015
rhumerus 26.1162 -70.4225 -53.5701
rradius 11.8334
rwrist 34.8972
rhand -22.5809 15.8671
rfingers 7.12502
rthumb 3.84786 -14.0779
lclavicle 2.10712e-014 -2.38542e-015
lhumerus -35.8748 -7.85837 53.6389
lradius 64.6898
lwrist 3.96327
lhand -23.1776 21.7618
lfingers 7.12502
lthumb 3.27162 51.7164
rfemur -21.5196 1.43686 0.760508
rtibia 40.8113
rfoot -4.25637 -18.0382
rtoes -9.32352
lfemur -34.0432 4.49762 -18.9138
ltibia 69.7496
lfoot -28.2229 4.02811
ltoes -5.96389
305
root 12.2811 16.0039 -11.8827 -16.3478 58.4186 -12.1555
lowerback 17.1141 1.69181 0.338038
upperback 7.09514 2.56355 0.756284
thorax -2.03636 1.38211 0.127569
lowerneck 1.80112 -20.5081 -16.8627
upperneck -3.18443 -28.9273 30.222
head 6.01089 -14.4069 9.07282
rclavicle 6.71892e-014 -1.51076e-014
rhumerus 36.2544 -73.8698 -64.1741
rradius 11.5037
rwrist 38.6116
rhand -21.5901 16.672
rfingers 7.12502
rthumb 4.80457 -13.2535
lclavicle 6.71892e-014 -1.51076e-014
lhumerus -35.8128 -6.2225 52.4505
lradius 63.1489
lwrist 3.93494
lhand -23.8324 23.2157
lfingers 7.12502
lthumb 2.63924 53.1791
rfemur -21.9935 0.558997 1.15438
rtibia 41.7103
rfoot -2.38856 -18.3281
rtoes -14.7052
lfemur -33.3695 4.10612 -18.6417
ltibia 69.9277
lfoot -28.5874 5.30817
ltoes -6.43837
